<svg width="20" height="20" viewBox="0 0 20 20" fill="none" xmlns="http://www.w3.org/2000/svg">
<rect width="20" height="20" rx="10" fill="white"/>
<path d="M7.5002 5.19995C7.5002 4.39995 6.8002 3.69995 5.8002 3.69995C4.8002 3.69995 4.2002 4.29995 4.2002 5.19995C4.2002 6.09995 4.9002 6.69995 5.9002 6.69995C6.8002 6.69995 7.5002 5.99995 7.5002 5.19995Z" fill="#222222"/>
<path d="M7.2002 8H4.7002V15H7.2002V8Z" fill="#222222"/>
<path d="M16.2002 11.2C16.2002 8.9 15.0002 7.5 13.4002 7.5C12.4002 7.5 11.6002 8.2 11.4002 9L11.2002 8H8.7002C8.7002 8.3 8.7002 9.7 8.7002 9.7V15H11.2002V11.2C11.2002 10.2 11.7002 9.5 12.4002 9.5C13.2002 9.5 13.7002 9.8 13.7002 11.2V14.9H16.2002V11.2Z" fill="#222222"/>
</svg>
